<svg width="151" height="41" viewBox="0 0 151 41" fill="none" xmlns="http://www.w3.org/2000/svg">
<g clip-path="url(#clip0_35_1867)">
<path d="M58.4533 36.4274C58.3977 36.3158 58.3421 36.26 58.2308 36.26C58.1196 36.26 58.064 36.3158 58.0084 36.4274L56.4511 40.1652C56.3955 40.221 56.3955 40.2767 56.4511 40.3883C56.5067 40.4441 56.5623 40.4999 56.6179 40.4999C56.6735 40.4999 56.6735 40.4999 56.7292 40.4441C56.7848 40.4441 56.7848 40.3883 56.7848 40.3325L58.1752 36.9295L59.5656 40.3325C59.5656 40.3883 59.6213 40.3883 59.6213 40.4441C59.6769 40.4441 59.6769 40.4999 59.7325 40.4999C59.7881 40.4999 59.8437 40.4441 59.8994 40.3883C59.955 40.3325 59.955 40.2767 59.8994 40.1652L58.4533 36.4274Z" fill="white"/>
<path d="M62.7914 36.4274C62.7358 36.3158 62.6802 36.26 62.5689 36.26C62.4577 36.26 62.4021 36.3158 62.3465 36.4274L60.7892 40.1652C60.7336 40.221 60.7892 40.2767 60.7892 40.3883C60.8448 40.4441 60.9004 40.4999 60.956 40.4999C61.0117 40.4999 61.0117 40.4999 61.0673 40.4441C61.1229 40.4441 61.1229 40.3883 61.1229 40.3325L61.4566 39.4399H63.5144L63.8481 40.3325C63.8481 40.3883 63.9038 40.3883 63.9038 40.4441C63.9594 40.4441 63.9594 40.4999 64.015 40.4999C64.0706 40.4999 64.1262 40.4441 64.1818 40.3883C64.2375 40.3325 64.2375 40.2767 64.1818 40.1652L62.7914 36.4274ZM61.6791 39.1052L62.5689 36.9295L63.4588 39.1052H61.6791Z" fill="white"/>
<path d="M67.9638 38.1569C67.7414 38.0454 67.5189 37.9896 67.2964 37.9896H65.9616V36.6506H68.0194C68.0751 36.6506 68.1307 36.6506 68.1307 36.5949C68.1863 36.5391 68.1863 36.4833 68.1863 36.4275C68.1863 36.3717 68.1863 36.3159 68.1307 36.2601C68.0751 36.2043 68.0751 36.2043 68.0194 36.2043H65.7391C65.6835 36.2043 65.6279 36.2043 65.5723 36.2601C65.5167 36.3159 65.5167 36.3717 65.5167 36.4275V40.2211C65.5167 40.2769 65.5167 40.3327 65.5723 40.3884C65.6279 40.4442 65.6835 40.4442 65.7391 40.4442H67.2408C67.5189 40.4442 67.7414 40.3884 67.9082 40.2769C68.1307 40.1653 68.2419 39.9979 68.3531 39.8306C68.4644 39.6632 68.52 39.44 68.52 39.1611C68.52 38.938 68.4644 38.7148 68.3531 38.5474C68.2975 38.3801 68.1307 38.2685 67.9638 38.1569ZM68.0194 39.6632C67.9638 39.7748 67.8526 39.8864 67.6857 39.9421C67.5745 39.9979 67.4077 40.0537 67.2408 40.0537H65.906V38.3243H67.2408C67.4077 38.3243 67.5745 38.3801 67.6857 38.4359C67.797 38.4917 67.9082 38.6032 68.0194 38.7148C68.0751 38.8264 68.1307 38.9937 68.1307 39.1611C68.1307 39.3843 68.1307 39.5516 68.0194 39.6632Z" fill="white"/>
<path d="M73.4143 36.818C73.2475 36.6506 72.9694 36.4833 72.7469 36.3717C72.4688 36.2601 72.1907 36.2043 71.9127 36.2043C71.5789 36.2043 71.3009 36.2601 71.0784 36.3717C70.8003 36.4833 70.5778 36.6506 70.411 36.818C70.2441 36.9854 70.0773 37.2643 69.966 37.4875C69.8548 37.7664 69.7992 38.0453 69.7992 38.3243C69.7992 38.659 69.8548 38.938 69.966 39.1611C70.0773 39.44 70.2441 39.6632 70.411 39.8306C70.5778 39.9979 70.8559 40.1653 71.0784 40.2769C71.3565 40.3884 71.6346 40.4442 71.9127 40.4442C72.2464 40.4442 72.5244 40.3884 72.7469 40.2769C73.025 40.1653 73.2475 39.9979 73.4143 39.8306C73.5812 39.6632 73.748 39.3843 73.8593 39.1611C73.9705 38.8822 74.0261 38.6032 74.0261 38.3243C74.0261 37.9896 73.9705 37.7106 73.8593 37.4875C73.748 37.2643 73.5812 37.0412 73.4143 36.818ZM73.4699 39.0495C73.3587 39.2727 73.2475 39.44 73.0806 39.6074C72.9138 39.7748 72.7469 39.8864 72.5244 39.9979C72.302 40.1095 72.0795 40.1095 71.857 40.1095C71.579 40.1095 71.3565 40.0537 71.1896 39.9979C70.9672 39.8864 70.8003 39.7748 70.6335 39.6074C70.4666 39.44 70.3554 39.2727 70.2441 39.0495C70.1329 38.8264 70.1329 38.6032 70.1329 38.3243C70.1329 38.1011 70.1885 37.8222 70.2441 37.6548C70.3554 37.4317 70.4666 37.2643 70.6335 37.097C70.8003 36.9296 70.9672 36.818 71.1896 36.7064C71.4121 36.5949 71.6346 36.5949 71.857 36.5949C72.0795 36.5949 72.3576 36.6507 72.5244 36.7064C72.7469 36.818 72.9138 36.9296 73.0806 37.097C73.2475 37.2643 73.3587 37.4317 73.4699 37.6548C73.5812 37.878 73.5812 38.1011 73.5812 38.3243C73.5812 38.6032 73.5812 38.8822 73.4699 39.0495Z" fill="white"/>
<path d="M77.4188 36.4274C77.1963 36.3158 76.9739 36.26 76.6958 36.26H75.639C75.5834 36.26 75.5278 36.26 75.4722 36.3158C75.4166 36.3716 75.4166 36.4274 75.4166 36.4832V40.2767C75.4166 40.3325 75.4166 40.3883 75.4722 40.4441C75.5278 40.4999 75.5834 40.4999 75.639 40.4999C75.6947 40.4999 75.7503 40.4999 75.8059 40.4441C75.8615 40.3883 75.8615 40.3325 75.8615 40.2767V38.9936H76.7514C77.0295 38.9936 77.2519 38.9378 77.4744 38.8263C77.6969 38.7147 77.8637 38.5473 77.975 38.3242C78.0862 38.101 78.1418 37.8779 78.1418 37.5989C78.1418 37.32 78.0862 37.0968 77.975 36.8737C77.7525 36.7063 77.6413 36.539 77.4188 36.4274ZM77.53 38.101C77.4744 38.2684 77.3632 38.38 77.1963 38.4357C77.0295 38.4915 76.8626 38.5473 76.6958 38.5473H75.8059V36.6505H76.6958C76.8626 36.6505 77.0295 36.7063 77.1963 36.7621C77.3632 36.8179 77.4744 36.9853 77.53 37.0968C77.5856 37.2642 77.6413 37.4316 77.6413 37.5989C77.6413 37.8221 77.5856 37.9894 77.53 38.101Z" fill="white"/>
<path d="M80.6446 36.4274C80.589 36.3158 80.5334 36.26 80.4221 36.26C80.3109 36.26 80.2553 36.3158 80.1997 36.4274L78.6424 40.1652C78.5868 40.221 78.6424 40.2767 78.6424 40.3883C78.698 40.4441 78.7536 40.4999 78.8092 40.4999C78.8649 40.4999 78.8649 40.4999 78.9205 40.4441C78.9761 40.4441 78.9761 40.3883 78.9761 40.3325L79.3098 39.4399H81.3676L81.7013 40.3325C81.7013 40.3883 81.757 40.3883 81.757 40.4441C81.8126 40.4441 81.8126 40.4999 81.8682 40.4999C81.9238 40.4999 81.9794 40.4441 82.0351 40.3883C82.0907 40.3325 82.0907 40.2767 82.0351 40.1652L80.6446 36.4274ZM79.5323 39.1052L80.4221 36.9295L81.312 39.1052H79.5323Z" fill="white"/>
<path d="M85.6502 36.26H84.371H83.926H82.6468C82.5912 36.26 82.5356 36.26 82.48 36.3158C82.4244 36.3716 82.4244 36.3716 82.4244 36.4832C82.4244 36.539 82.4244 36.5947 82.48 36.5947C82.5356 36.6505 82.5356 36.6505 82.6468 36.6505H83.926V40.2767C83.926 40.3325 83.926 40.3883 83.9817 40.4441C84.0373 40.4999 84.0929 40.4999 84.1485 40.4999C84.2041 40.4999 84.2597 40.4999 84.3154 40.4441C84.371 40.3883 84.371 40.3325 84.371 40.2767V36.6505H85.6502C85.7058 36.6505 85.7614 36.6505 85.817 36.5947C85.8726 36.5389 85.8727 36.539 85.8727 36.4832C85.8727 36.4274 85.8726 36.3716 85.817 36.3158C85.7614 36.26 85.7058 36.26 85.6502 36.26Z" fill="white"/>
<path d="M90.2108 36.818C90.0439 36.6506 89.7658 36.4833 89.5434 36.3717C89.2653 36.2601 88.9872 36.2043 88.7091 36.2043C88.3754 36.2043 88.0973 36.2601 87.8748 36.3717C87.5968 36.4833 87.3743 36.6506 87.2074 36.818C87.0406 36.9854 86.8737 37.2643 86.7625 37.4875C86.6513 37.7664 86.5956 38.0453 86.5956 38.3243C86.5956 38.659 86.6513 38.938 86.7625 39.1611C86.8737 39.44 87.0406 39.6632 87.2074 39.8306C87.3743 39.9979 87.6524 40.1653 87.8748 40.2769C88.1529 40.3884 88.431 40.4442 88.7091 40.4442C89.0428 40.4442 89.3209 40.3884 89.5434 40.2769C89.8214 40.1653 90.0439 39.9979 90.2108 39.8306C90.3776 39.6632 90.5445 39.3843 90.6557 39.1611C90.7669 38.8822 90.8226 38.6032 90.8226 38.3243C90.8226 37.9896 90.7669 37.7106 90.6557 37.4875C90.6001 37.2643 90.4332 37.0412 90.2108 36.818ZM90.322 39.0495C90.2108 39.2727 90.0995 39.44 89.9327 39.6074C89.7658 39.7748 89.599 39.8864 89.3765 39.9979C89.154 40.1095 88.9316 40.1095 88.7091 40.1095C88.431 40.1095 88.2085 40.0537 88.0417 39.9979C87.8192 39.8864 87.6524 39.7748 87.4855 39.6074C87.3187 39.44 87.2074 39.2727 87.0962 39.0495C86.985 38.8264 86.985 38.6032 86.985 38.3243C86.985 38.1011 87.0406 37.8222 87.0962 37.6548C87.2074 37.4317 87.3187 37.2643 87.4855 37.097C87.6524 36.9296 87.8192 36.818 88.0417 36.7064C88.2642 36.5949 88.4866 36.5949 88.7091 36.5949C88.9316 36.5949 89.2097 36.6507 89.3765 36.7064C89.599 36.818 89.7658 36.9296 89.9327 37.097C90.0995 37.2643 90.2108 37.4317 90.322 37.6548C90.4332 37.878 90.4332 38.1011 90.4332 38.3243C90.4332 38.6032 90.3776 38.8822 90.322 39.0495Z" fill="white"/>
<path d="M94.2152 36.4274C93.9928 36.3158 93.7703 36.26 93.4922 36.26H92.4355C92.3799 36.26 92.3243 36.26 92.2686 36.3158C92.213 36.3716 92.213 36.4274 92.213 36.4832V40.2767C92.213 40.3325 92.213 40.3883 92.2686 40.4441C92.3243 40.4999 92.3799 40.4999 92.4355 40.4999C92.4911 40.4999 92.5467 40.4999 92.6023 40.4441C92.658 40.3883 92.658 40.3325 92.658 40.2767V38.9936H93.5478C93.8259 38.9936 94.0484 38.9378 94.2709 38.8263C94.4933 38.7147 94.6602 38.5473 94.7714 38.3242C94.8826 38.101 94.9383 37.8779 94.9383 37.5989C94.9383 37.32 94.8826 37.0968 94.7714 36.8737C94.6046 36.7063 94.4377 36.539 94.2152 36.4274ZM94.3265 38.101C94.2709 38.2684 94.1596 38.38 93.9928 38.4357C93.8259 38.4915 93.6591 38.5473 93.4922 38.5473H92.6023V36.6505H93.4922C93.6591 36.6505 93.8259 36.7063 93.9928 36.7621C94.1596 36.8179 94.2709 36.9853 94.3265 37.0968C94.3821 37.2642 94.4377 37.4316 94.4377 37.5989C94.4933 37.8221 94.4377 37.9894 94.3265 38.101Z" fill="white"/>
<path d="M99.332 36.26C99.2764 36.26 99.2208 36.26 99.1652 36.3158L96.4955 39.7747V36.4832C96.4955 36.4274 96.4955 36.3716 96.4399 36.3158C96.3843 36.26 96.3287 36.26 96.2731 36.26C96.2174 36.26 96.1618 36.26 96.1062 36.3158C96.0506 36.3716 96.0506 36.4274 96.0506 36.4832V40.2767C96.0506 40.3325 96.0506 40.3883 96.1062 40.4441C96.1618 40.4999 96.2174 40.4999 96.2731 40.4999C96.3287 40.4999 96.3287 40.4999 96.3843 40.4999C96.4399 40.4999 96.4399 40.4441 96.4399 40.4441L99.1096 36.9853V40.2767C99.1096 40.3325 99.1095 40.3883 99.1652 40.4441C99.2208 40.4999 99.2764 40.4999 99.332 40.4999C99.3876 40.4999 99.4433 40.4999 99.4989 40.4441C99.5545 40.3883 99.5545 40.3325 99.5545 40.2767V36.4832C99.5545 36.4274 99.5545 36.3716 99.4989 36.3158C99.4433 36.3158 99.3876 36.26 99.332 36.26Z" fill="white"/>
<path d="M103.615 36.26H102.391C102.113 36.26 101.89 36.3158 101.668 36.4274C101.445 36.539 101.279 36.7063 101.167 36.8737C101.056 37.041 101.001 37.2642 101.001 37.5431C101.001 37.7663 101.056 37.9894 101.167 38.1568C101.279 38.3242 101.446 38.4915 101.612 38.6031C101.724 38.6589 101.835 38.7147 101.89 38.7147L101.001 40.1094C100.945 40.221 100.945 40.2767 100.945 40.3325C101.001 40.3883 101.056 40.4441 101.167 40.4441C101.223 40.4441 101.223 40.4441 101.279 40.4441C101.334 40.4441 101.334 40.3883 101.334 40.3883L102.335 38.8263H103.336V40.2767C103.336 40.3325 103.336 40.3883 103.392 40.4441C103.448 40.4999 103.503 40.4999 103.559 40.4999C103.615 40.4999 103.67 40.4999 103.726 40.4441C103.781 40.3883 103.781 40.3325 103.781 40.2767V36.4832C103.781 36.4274 103.781 36.3716 103.726 36.3158C103.726 36.3158 103.67 36.26 103.615 36.26ZM103.392 38.4357H102.391C102.224 38.4357 102.057 38.38 101.89 38.3242C101.724 38.2684 101.612 38.1568 101.557 38.0452C101.501 37.9336 101.445 37.7663 101.445 37.5989C101.445 37.4316 101.501 37.2642 101.557 37.0968C101.612 36.9853 101.724 36.8737 101.89 36.7621C102.057 36.7063 102.169 36.6505 102.391 36.6505H103.392V38.4357Z" fill="white"/>
<path d="M108.898 38.3243L110.289 36.5949C110.344 36.5391 110.344 36.4833 110.344 36.4833C110.344 36.4275 110.344 36.3717 110.289 36.3717C110.233 36.3159 110.177 36.3159 110.122 36.3159C110.066 36.3159 110.011 36.3159 109.955 36.3717L108.509 38.2127H107.897V36.5391C107.897 36.4833 107.897 36.4275 107.841 36.3717C107.786 36.3159 107.73 36.3159 107.675 36.3159C107.619 36.3159 107.563 36.3159 107.508 36.3717C107.452 36.4275 107.452 36.4833 107.452 36.5391V40.3327C107.452 40.3884 107.452 40.4442 107.508 40.5C107.563 40.5558 107.619 40.5558 107.675 40.5558C107.73 40.5558 107.786 40.5558 107.841 40.5C107.897 40.4442 107.897 40.3884 107.897 40.3327V38.6032H108.509L110.066 40.5C110.122 40.5558 110.177 40.5558 110.233 40.5558C110.289 40.5558 110.344 40.5558 110.4 40.5C110.455 40.4442 110.455 40.3884 110.455 40.3884C110.455 40.3327 110.455 40.2769 110.4 40.2211L108.898 38.3243Z" fill="white"/>
<path d="M113.737 36.4274C113.514 36.3158 113.292 36.26 113.014 36.26H111.957C111.902 36.26 111.846 36.26 111.79 36.3158C111.735 36.3716 111.735 36.4274 111.735 36.4832V40.2767C111.735 40.3325 111.735 40.3883 111.79 40.4441C111.846 40.4999 111.902 40.4999 111.957 40.4999C112.013 40.4999 112.068 40.4999 112.124 40.4441C112.18 40.3883 112.18 40.3325 112.18 40.2767V38.9936H113.069C113.348 38.9936 113.57 38.9378 113.793 38.8263C114.015 38.7147 114.182 38.5473 114.293 38.3242C114.404 38.101 114.46 37.8779 114.46 37.5989C114.46 37.32 114.404 37.0968 114.293 36.8737C114.126 36.7063 113.959 36.539 113.737 36.4274ZM113.848 38.101C113.793 38.2684 113.681 38.38 113.514 38.4357C113.348 38.4915 113.181 38.5473 113.014 38.5473H112.124V36.6505H113.014C113.181 36.6505 113.348 36.7063 113.514 36.7621C113.681 36.8179 113.793 36.9853 113.848 37.0968C113.904 37.2642 113.959 37.4316 113.959 37.5989C114.015 37.8221 113.959 37.9894 113.848 38.101Z" fill="white"/>
<path d="M116.963 36.4274C116.907 36.3158 116.851 36.26 116.74 36.26C116.629 36.26 116.573 36.3158 116.518 36.4274L114.961 40.1652C114.905 40.221 114.961 40.2767 114.961 40.3883C115.016 40.4441 115.072 40.4999 115.127 40.4999C115.183 40.4999 115.183 40.4999 115.239 40.4441C115.294 40.4441 115.294 40.3883 115.294 40.3325L115.628 39.4399H117.686L118.019 40.3325C118.019 40.3883 118.075 40.3883 118.075 40.4441C118.131 40.4441 118.131 40.4999 118.186 40.4999C118.242 40.4999 118.298 40.4441 118.353 40.3883C118.409 40.3325 118.409 40.2767 118.353 40.1652L116.963 36.4274ZM115.906 39.1052L116.796 36.9295L117.686 39.1052H115.906Z" fill="white"/>
<path d="M122.691 39.719C122.636 39.719 122.58 39.719 122.58 39.7748C122.413 39.8864 122.246 39.9979 122.08 40.0537C121.913 40.1095 121.69 40.1653 121.523 40.1653C121.301 40.1653 121.078 40.1095 120.856 40.0537C120.633 39.9421 120.467 39.8306 120.3 39.6632C120.133 39.4958 120.022 39.3285 119.91 39.1053C119.799 38.8822 119.799 38.659 119.799 38.4359C119.799 38.2127 119.855 37.9896 119.91 37.7664C120.022 37.5433 120.133 37.3759 120.3 37.2085C120.467 37.0412 120.633 36.9296 120.856 36.818C121.078 36.7064 121.301 36.6506 121.523 36.6506C121.746 36.6506 121.913 36.7064 122.08 36.7622C122.246 36.818 122.413 36.9296 122.524 37.0412C122.58 37.097 122.58 37.097 122.636 37.097C122.691 37.097 122.691 37.097 122.747 37.097C122.803 37.097 122.803 37.0412 122.803 37.0412C122.858 37.0412 122.858 36.9854 122.858 36.9854C122.858 36.9296 122.858 36.9296 122.858 36.8738C122.858 36.818 122.858 36.818 122.803 36.7622C122.58 36.5949 122.413 36.4833 122.191 36.4275C121.968 36.3717 121.746 36.3159 121.468 36.3159C121.19 36.3159 120.912 36.3717 120.633 36.4833C120.355 36.5949 120.133 36.7622 119.966 36.9296C119.799 37.1527 119.632 37.3759 119.521 37.599C119.41 37.878 119.354 38.1569 119.354 38.4359C119.354 38.7148 119.41 38.9937 119.521 39.2727C119.632 39.5516 119.799 39.7748 119.966 39.9421C120.133 40.1653 120.355 40.2769 120.633 40.3884C120.912 40.5 121.134 40.5558 121.468 40.5558C121.69 40.5558 121.968 40.5 122.191 40.4442C122.413 40.3884 122.636 40.2769 122.803 40.1095L122.858 40.0537V39.9979C122.858 39.9421 122.858 39.8864 122.803 39.8306C122.803 39.719 122.747 39.719 122.691 39.719Z" fill="white"/>
<path d="M127.753 36.818C127.586 36.6506 127.308 36.4833 127.085 36.3717C126.807 36.2601 126.529 36.2043 126.251 36.2043C125.917 36.2043 125.639 36.2601 125.417 36.3717C125.139 36.4833 124.916 36.6506 124.749 36.818C124.582 36.9854 124.415 37.2643 124.304 37.4875C124.193 37.7664 124.137 38.0453 124.137 38.3243C124.137 38.659 124.193 38.938 124.304 39.1611C124.415 39.44 124.582 39.6632 124.749 39.8306C124.916 39.9979 125.194 40.1653 125.417 40.2769C125.695 40.3884 125.973 40.4442 126.251 40.4442C126.585 40.4442 126.863 40.3884 127.085 40.2769C127.363 40.1653 127.586 39.9979 127.753 39.8306C127.919 39.6632 128.086 39.3843 128.197 39.1611C128.309 38.8822 128.364 38.6032 128.364 38.3243C128.364 37.9896 128.309 37.7106 128.197 37.4875C128.086 37.2643 127.975 37.0412 127.753 36.818ZM127.808 39.0495C127.697 39.2727 127.586 39.44 127.419 39.6074C127.252 39.7748 127.085 39.8864 126.863 39.9979C126.64 40.1095 126.418 40.1095 126.195 40.1095C125.917 40.1095 125.695 40.0537 125.528 39.9979C125.305 39.8864 125.139 39.7748 124.972 39.6074C124.805 39.44 124.694 39.2727 124.582 39.0495C124.471 38.8264 124.471 38.6032 124.471 38.3243C124.471 38.1011 124.527 37.8222 124.582 37.6548C124.694 37.4317 124.805 37.2643 124.972 37.097C125.139 36.9296 125.305 36.818 125.528 36.7064C125.75 36.5949 125.973 36.5949 126.195 36.5949C126.418 36.5949 126.696 36.6507 126.863 36.7064C127.085 36.818 127.252 36.9296 127.419 37.097C127.586 37.2643 127.697 37.4317 127.808 37.6548C127.919 37.878 127.919 38.1011 127.919 38.3243C127.975 38.6032 127.919 38.8822 127.808 39.0495Z" fill="white"/>
<path d="M132.146 36.26H130.867H130.422H129.143C129.087 36.26 129.032 36.26 128.976 36.3158C128.92 36.3716 128.92 36.3716 128.92 36.4832C128.92 36.539 128.92 36.5947 128.976 36.5947C129.032 36.6505 129.032 36.6505 129.143 36.6505H130.422V40.2767C130.422 40.3325 130.422 40.3883 130.478 40.4441C130.533 40.4999 130.589 40.4999 130.645 40.4999C130.7 40.4999 130.756 40.4999 130.811 40.4441C130.867 40.3883 130.867 40.3325 130.867 40.2767V36.6505H132.146C132.202 36.6505 132.258 36.6505 132.313 36.5947C132.369 36.5389 132.369 36.539 132.369 36.4832C132.369 36.4274 132.369 36.3716 132.313 36.3158C132.258 36.26 132.202 36.26 132.146 36.26Z" fill="white"/>
<path d="M135.65 38.101C135.428 37.9894 135.205 37.9337 134.983 37.9337H133.926V36.4274C133.926 36.3716 133.926 36.3158 133.87 36.3158C133.815 36.26 133.759 36.26 133.704 36.26C133.648 36.26 133.592 36.26 133.537 36.3158C133.481 36.3716 133.481 36.3716 133.481 36.4274V40.221C133.481 40.2767 133.481 40.3325 133.537 40.3883C133.592 40.4441 133.648 40.4441 133.704 40.4441H134.927C135.205 40.4441 135.428 40.3883 135.595 40.2767C135.817 40.1652 135.928 39.9978 136.039 39.8304C136.151 39.6631 136.206 39.4399 136.206 39.161C136.206 38.9378 136.151 38.7147 136.039 38.4915C135.984 38.38 135.817 38.2126 135.65 38.101ZM135.706 39.6631C135.65 39.7747 135.539 39.8862 135.372 39.9978C135.261 40.0536 135.094 40.1094 134.927 40.1094H133.87V38.38H134.927C135.094 38.38 135.261 38.4357 135.372 38.4915C135.483 38.5473 135.595 38.6589 135.706 38.7705C135.761 38.882 135.817 39.0494 135.817 39.2168C135.817 39.3841 135.817 39.4957 135.706 39.6631Z" fill="white"/>
<path d="M137.152 36.26C137.096 36.26 137.041 36.26 136.985 36.3158C136.929 36.3716 136.929 36.4274 136.929 36.4832V40.2767C136.929 40.3325 136.929 40.3883 136.985 40.4441C137.041 40.4999 137.096 40.4999 137.152 40.4999C137.207 40.4999 137.263 40.4999 137.319 40.4441C137.374 40.3883 137.374 40.3325 137.374 40.2767V36.4832C137.374 36.4274 137.374 36.3716 137.319 36.3158C137.263 36.3158 137.207 36.26 137.152 36.26Z" fill="white"/>
<path d="M52.2241 38.3242H0.5V38.7705H52.2241V38.3242Z" fill="white"/>
<path d="M150.5 11.4346H146.44C146.44 11.4346 146.44 19.0217 146.44 20.1375C146.44 21.1975 146.273 22.4806 145.828 23.5406C144.16 27.3899 139.432 27.8362 137.041 25.3258C135.817 23.8753 135.261 22.7037 135.261 20.8627C135.261 17.9618 135.261 11.4346 135.261 11.4346H131.312C131.312 11.4346 131.201 20.5838 131.423 22.8711C131.646 25.3816 132.647 27.5573 134.872 28.952C137.986 30.9046 141.267 31.2393 144.716 29.9004C145.216 29.733 145.828 29.4541 146.44 29.1752C146.607 32.913 144.994 35.0329 142.324 36.4276V40.3328C142.658 40.3328 143.158 40.3328 143.437 40.2212C145.272 39.6633 146.551 38.6033 147.719 37.0971C149.666 34.5866 150.5 32.1319 150.5 28.5057C150.5 23.1501 150.5 11.4346 150.5 11.4346Z" fill="white"/>
<path d="M18.4644 28.3382C21.6346 30.9602 25.1385 31.295 28.9205 29.7887C29.421 29.5655 30.8671 28.8403 30.8671 28.8403L30.9227 30.6813H34.3154V20.0816C34.3154 19.6353 34.2598 19.1332 34.2041 18.6869C33.203 14.168 29.0873 11.2113 24.1374 11.4344C20.3554 11.6018 17.0184 14.1122 15.8504 17.7385C14.5156 21.6436 15.5723 25.9951 18.4644 28.3382ZM24.916 15.3396C28.0306 15.3396 30.589 17.9058 30.589 21.0857C30.589 24.0983 27.975 26.6645 24.9717 26.6645C21.8571 26.7203 19.2431 24.1541 19.2431 20.9742C19.1875 17.85 21.7458 15.3396 24.916 15.3396Z" fill="white"/>
<path d="M48.7202 19.7467C46.9961 19.1889 45.1607 19.1889 43.381 19.1889C42.6579 19.1889 41.9905 19.1331 41.3787 18.7983C40.2108 18.1847 39.9883 16.7342 40.9894 15.8974C41.49 15.4511 42.4355 15.2279 43.1029 15.2279H49.9438V11.3228C49.9438 11.3228 42.0462 11.3228 41.045 11.4343C38.5423 11.7133 36.7069 13.6659 36.4288 16.1763C36.1507 19.0773 37.4299 21.3088 39.9883 22.1456C41.7681 22.7035 43.5478 22.8151 45.3832 22.8151C45.995 22.8151 46.6624 22.7593 47.2186 23.0382C47.886 23.3172 48.3865 23.8193 48.4421 24.6003C48.4421 25.3813 48.1084 26.0508 47.3298 26.4413C46.8292 26.776 46.3287 26.776 45.8281 26.776C43.6591 26.776 38.1529 26.7202 38.1529 26.7202L38.2086 30.6812C38.2086 30.6812 44.6046 30.737 47.6079 30.6254C50.2775 30.5138 52.2797 28.3381 52.5578 25.7718C52.8359 22.8709 51.3899 20.5836 48.7202 19.7467Z" fill="white"/>
<path d="M111.902 28.8404C113.848 29.9562 116.073 30.6256 118.409 30.6814C118.409 29.3425 118.409 28.1152 118.409 26.7205C116.518 26.5531 114.46 25.8837 113.292 24.7121C110.567 22.0901 111.29 19.468 111.179 15.8418C111.179 15.786 111.179 15.1166 111.179 15.1166H115.239V11.3788H111.179V0.555908H107.118V2.22955C107.118 2.22955 107.118 12.9408 107.118 18.2965C107.118 19.3007 107.118 20.3049 107.285 21.309C107.786 24.4332 108.954 27.2226 111.902 28.8404Z" fill="white"/>
<path d="M130.2 26.7204C128.309 26.553 126.251 25.8835 125.083 24.712C122.358 22.09 123.081 19.4679 122.969 15.8417C122.969 15.7859 122.969 15.1165 122.969 15.1165H127.029V11.3787H122.969V0.5H118.965V2.17364C118.965 2.17364 118.965 12.8849 118.965 18.2406C118.965 19.2448 118.965 20.249 119.132 21.2531C119.632 24.3773 120.745 27.1667 123.692 28.7845C125.639 29.9003 127.864 30.5697 130.2 30.6255C130.2 29.3424 130.2 28.1151 130.2 26.7204Z" fill="white"/>
<path d="M5.83927 30.4025C6.06174 30.4583 7.39655 30.6814 8.73137 30.6814H14.3487V26.7205H7.73026C6.17297 26.7205 5.17186 25.9952 4.61568 24.6005C4.28198 23.8753 4.28198 23.1501 4.28198 22.369C4.28198 15.6187 4.28198 0.555908 4.28198 0.555908H0.5V23.7079C0.5 26.8878 2.78031 29.6215 5.83927 30.4025Z" fill="white"/>
<path d="M84.3153 15.3954C84.7046 15.3396 85.5945 15.228 85.5945 15.228C85.5945 15.228 85.5945 12.7734 85.5945 11.4345C83.0361 11.4902 80.2552 12.5502 78.4199 14.2239C78.4199 12.8849 78.4199 11.3787 78.4199 11.3787H74.5823V30.6813H78.4199V22.2573C78.698 18.129 80.7002 16.0649 84.3153 15.3954Z" fill="white"/>
<path d="M24.6936 8.14303C26.4177 8.14303 27.8081 6.74833 27.8081 5.0189C27.8081 3.28948 26.4177 1.89478 24.6936 1.89478C22.9694 1.89478 21.579 3.28948 21.579 5.0189C21.579 6.74833 22.9694 8.14303 24.6936 8.14303ZM24.6936 3.79157C25.361 3.79157 25.9171 4.34945 25.9171 5.0189C25.9171 5.68836 25.361 6.24624 24.6936 6.24624C24.0261 6.24624 23.47 5.68836 23.47 5.0189C23.47 4.34945 24.0261 3.79157 24.6936 3.79157Z" fill="white"/>
<path d="M63.7926 30.7372C67.074 30.7372 69.9661 29.1194 71.6902 26.6089L68.4644 24.7679L68.1307 24.6005C67.1296 25.8837 65.5167 26.7205 63.7369 26.7205C62.2353 26.7205 60.8448 26.1068 59.8437 25.1584L60.1218 24.9911C60.1218 24.9911 63.2364 23.3174 66.5734 21.5322L66.6847 21.4764L69.1874 20.0817L69.5211 19.8586L72.747 18.0176L72.8026 17.9618C71.4678 14.1682 67.9082 11.4346 63.6813 11.4346C58.3421 11.4346 54.0039 15.786 54.0039 21.1417C54.1708 26.4415 58.4533 30.7372 63.7926 30.7372ZM63.7926 15.4513C65.4055 15.4513 66.9071 16.1766 67.9082 17.2923C67.8526 17.2923 67.797 17.3481 67.797 17.3481L58.8426 22.3132C58.8426 22.3132 58.6201 22.4248 58.3421 22.5364C58.2308 22.0901 58.1752 21.588 58.1752 21.0859C58.2308 17.9618 60.7336 15.4513 63.7926 15.4513Z" fill="white"/>
<path d="M96.1062 11.3787C90.767 11.3787 86.4288 15.7301 86.4288 21.0858C86.4288 26.4414 90.767 30.7929 96.1062 30.7929C99.3877 30.7929 102.28 29.175 104.004 26.6646L100.778 24.8236L100.444 24.6562C99.4433 25.9393 97.8304 26.7762 96.0506 26.7762C94.549 26.7762 93.1585 26.1625 92.1574 25.2141L92.4355 25.0467C92.4355 25.0467 95.5501 23.3731 98.8871 21.5879L98.9984 21.5321L101.501 20.1374L101.835 19.9142L105.061 18.0732L105.116 18.0174C103.948 14.1123 100.333 11.3787 96.1062 11.3787ZM100.166 17.348L91.2119 22.3131C91.2119 22.3131 90.9895 22.4247 90.7114 22.5363C90.6001 22.09 90.5445 21.5879 90.5445 21.0858C90.5445 17.9616 93.0473 15.507 96.1062 15.507C97.7192 15.507 99.2208 16.2322 100.222 17.348C100.166 17.2922 100.166 17.348 100.166 17.348Z" fill="white"/>
</g>
<defs>
<clipPath id="clip0_35_1867">
<rect width="150" height="40" fill="white" transform="translate(0.5 0.5)"/>
</clipPath>
</defs>
</svg>
