<svg width="25" height="26" viewBox="0 0 25 26" fill="none" xmlns="http://www.w3.org/2000/svg">
<path d="M13.5087 25.5C12.8244 25.5 12.1402 25.5 11.4625 25.5C11.1562 25.4609 10.8499 25.4283 10.5502 25.3697C5.51946 24.425 2.18302 21.5194 0.521318 16.6853C0.228077 15.8318 0.104264 14.9393 0 14.0402C0 13.3562 0 12.6721 0 11.9946C0.0651648 11.5515 0.11078 11.1085 0.188978 10.672C1.55092 3.46652 8.87544 -1.0353 15.9328 0.98433C22.1039 2.75639 25.9356 8.89997 24.8017 15.239C23.9546 19.9688 20.4161 23.8322 15.7829 25.0896C15.04 25.2915 14.2776 25.4088 13.5087 25.5ZM18.2331 9.12147C18.2722 8.22241 17.9529 7.96182 17.2035 8.13772C16.8516 8.22241 16.5193 8.33968 16.1869 8.46998C13.1046 9.66873 10.081 11.0043 7.04431 12.3138C6.42525 12.5809 5.80618 12.848 5.20015 13.1347C4.99162 13.2324 4.75051 13.3627 4.76355 13.6363C4.77658 13.923 5.03072 14.0077 5.25228 14.0793C5.74102 14.2487 6.23627 14.4051 6.73804 14.5549C6.94005 14.6201 7.14858 14.6592 7.35059 14.7113C8.05437 14.9132 8.69298 14.7699 9.2925 14.366C10.889 13.291 12.4921 12.2291 14.1017 11.1606C14.2646 11.0499 14.4275 10.9522 14.6034 10.861C14.7142 10.8023 14.8445 10.7893 14.9358 10.9131C15.027 11.0303 14.9879 11.1476 14.8967 11.2453C14.7403 11.4212 14.5839 11.5971 14.4144 11.76C13.3262 12.8024 12.2379 13.8318 11.1497 14.8742C11.0063 15.011 10.8695 15.1413 10.7587 15.3107C10.5893 15.5713 10.6023 15.8123 10.8043 16.0468C10.9542 16.2227 11.1432 16.353 11.3322 16.4768C12.466 17.2456 13.6064 18.0143 14.7468 18.7831C15.0074 18.959 15.2811 19.1284 15.5939 19.2066C16.0762 19.3238 16.3759 19.187 16.604 18.7505C16.7148 18.529 16.7799 18.2945 16.8255 18.06C17.1774 16.1706 17.5033 14.2748 17.7965 12.3724C17.9659 11.2519 18.1419 10.1248 18.2331 9.12147Z" fill="white"/>
</svg>
