<svg width="25" height="26" viewBox="0 0 25 26" fill="none" xmlns="http://www.w3.org/2000/svg">
<path d="M12.5 0.5C5.59644 0.5 0 6.09644 0 13C0 19.9036 5.59644 25.5 12.5 25.5C19.4036 25.5 25 19.9036 25 13C25 6.09644 19.4036 0.5 12.5 0.5ZM19.1583 17.2432H17.5722C17.4004 17.2434 17.2307 17.2048 17.0759 17.1304C16.921 17.056 16.785 16.9477 16.6777 16.8135C16.2021 16.2163 15.2649 15.1573 14.281 14.7025C14.224 14.6758 14.1612 14.6639 14.0984 14.6679C14.0356 14.672 13.9749 14.6917 13.9217 14.7255C13.8686 14.7592 13.8248 14.8057 13.7945 14.8609C13.7641 14.916 13.7481 14.9778 13.748 15.0408V16.6095C13.748 16.6927 13.7316 16.7751 13.6998 16.852C13.668 16.9289 13.6213 16.9987 13.5625 17.0576C13.5037 17.1164 13.4338 17.1631 13.357 17.1949C13.2801 17.2268 13.1977 17.2432 13.1145 17.2432H12.3811C11.4272 17.2432 9.37324 16.6625 7.73657 14.2784C6.34204 12.2471 5.72041 10.6729 5.35791 9.39653C5.33684 9.32173 5.33338 9.24305 5.34783 9.16669C5.36227 9.09032 5.39422 9.01834 5.44116 8.9564C5.4881 8.89446 5.54876 8.84423 5.61837 8.80968C5.68799 8.77512 5.76466 8.75717 5.84238 8.75723H7.44697C7.60706 8.75709 7.76291 8.80863 7.89136 8.90418C8.0198 8.99973 8.11397 9.13418 8.15986 9.28755C8.45825 10.2855 9.2311 12.4384 10.5972 13.5105C10.6389 13.5433 10.6889 13.5638 10.7417 13.5695C10.7944 13.5752 10.8477 13.566 10.8954 13.5429C10.9431 13.5198 10.9834 13.4837 11.0116 13.4387C11.0398 13.3938 11.0547 13.3419 11.0548 13.2888V10.7758C11.0548 10.2792 10.8396 9.78232 10.5036 9.39399C10.4552 9.3383 10.4238 9.26986 10.4133 9.19683C10.4027 9.1238 10.4133 9.04926 10.4439 8.98212C10.4745 8.91497 10.5238 8.85804 10.5859 8.81813C10.6479 8.77821 10.7202 8.75698 10.7939 8.75698H13.2679C13.3953 8.75698 13.5174 8.80759 13.6075 8.89766C13.6976 8.98774 13.7482 9.10991 13.7482 9.2373V12.6223C13.7482 12.6713 13.7617 12.7194 13.7872 12.7612C13.8127 12.8031 13.8493 12.8371 13.8928 12.8595C13.9364 12.882 13.9852 12.8921 14.0341 12.8886C14.083 12.8851 14.13 12.8683 14.1699 12.8399C14.624 12.5167 15.0129 12.0391 15.3707 11.5023C15.8208 10.8271 16.3702 9.71104 16.6458 9.13179C16.6992 9.01957 16.7832 8.92479 16.8883 8.85842C16.9933 8.79205 17.115 8.75683 17.2393 8.75684H18.9893C19.0623 8.75681 19.1342 8.77544 19.1981 8.81096C19.2619 8.84649 19.3156 8.89774 19.3541 8.95985C19.3927 9.02196 19.4147 9.09287 19.4181 9.16586C19.4215 9.23886 19.4062 9.31152 19.3737 9.37695C18.9321 10.2627 18.072 11.8876 17.2626 12.8409C17.1467 12.978 17.09 13.1555 17.1049 13.3344C17.1197 13.5132 17.205 13.6789 17.3418 13.795C17.8694 14.2458 18.6931 15.0792 19.5811 16.4673C19.63 16.5433 19.6577 16.6311 19.661 16.7214C19.6643 16.8118 19.6433 16.9013 19.6 16.9807C19.5568 17.0601 19.4929 17.1264 19.4152 17.1726C19.3375 17.2187 19.2488 17.2431 19.1583 17.2432Z" fill="white"/>
</svg>
