<svg width="24" height="24" viewBox="0 0 24 24" fill="none" xmlns="http://www.w3.org/2000/svg">
<path d="M0 13.0364C0 12.3545 0 11.6727 0 10.9636C0.0544835 10.5818 0.108967 10.2 0.163451 9.81818C0.953462 5.31818 4.41317 1.58182 8.82633 0.381818C9.53462 0.218182 10.2429 0.109091 10.9512 0C11.6322 0 12.3133 0 13.0216 0C13.4847 0.0818182 13.975 0.109091 14.4381 0.218182C19.1237 1.33636 22.1748 4.22727 23.5914 8.83636C23.8093 9.54545 23.891 10.2818 24 11.0182C24 11.6727 24 12.3273 24 12.9818C23.9455 13.3909 23.9183 13.8 23.8093 14.2091C22.7469 19.0091 19.8865 22.1182 15.2009 23.5909C14.4654 23.8091 13.7299 23.9182 12.9671 24C12.3133 24 11.6595 24 11.0057 24C10.6243 23.9455 10.2157 23.9182 9.83428 23.8364C5.01249 22.8 1.87968 19.9091 0.408627 15.2182C0.190692 14.5091 0.108967 13.7727 0 13.0364ZM19.3689 11.7545C19.3689 11.4545 19.3689 11.1273 19.3144 10.7727C18.7151 6.81818 15.0647 4.14545 11.1419 4.74545C6.29285 5.50909 3.6504 10.8273 5.93871 15.1636C6.02043 15.3273 6.04767 15.4636 5.99319 15.6545C5.69353 16.6909 5.42111 17.7273 5.14869 18.7636C5.06697 19.0636 5.09421 19.0636 5.36663 18.9818C6.4563 18.7091 7.51873 18.4091 8.6084 18.1364C8.77185 18.0818 8.90806 18.1091 9.04427 18.1909C10.4336 18.8727 11.8774 19.1182 13.403 18.8727C16.9989 18.2727 19.4234 15.1364 19.3689 11.7545Z" fill="#121617"/>
<path d="M12.3133 17.7817C11.1419 17.7817 10.1339 17.509 9.18049 16.9635C9.01703 16.8544 8.88083 16.8544 8.69013 16.909C8.11806 17.0726 7.51874 17.209 6.94666 17.3726C6.70148 17.4272 6.67424 17.4272 6.72873 17.1817C6.89218 16.5817 7.05563 16.009 7.21908 15.409C7.24632 15.2726 7.24632 15.1635 7.16459 15.0272C6.45631 13.909 6.12941 12.6817 6.23837 11.3453C6.45631 9.05444 7.60046 7.36353 9.67084 6.38171C13.294 4.66353 17.5437 6.95444 18.143 10.9363C18.6334 14.209 16.3178 17.2908 13.0488 17.7544C12.7764 17.7817 12.504 17.7817 12.3133 17.7817ZM14.1112 15.2181C14.193 15.2181 14.2475 15.2181 14.3292 15.2181C15.1192 15.1635 15.7458 14.6181 15.8547 13.8272C15.882 13.6635 15.882 13.4999 15.6913 13.4181C15.2282 13.1999 14.7378 12.9544 14.2747 12.7363C14.1112 12.6544 13.975 12.709 13.8661 12.8453C13.7026 13.0635 13.5392 13.2544 13.3757 13.4726C13.2668 13.609 13.1305 13.6635 12.9671 13.5817C11.9047 13.1726 11.0874 12.4363 10.4881 11.4544C10.4064 11.3181 10.4064 11.1817 10.5153 11.0726C10.6515 10.8817 10.7877 10.7181 10.924 10.5272C11.0057 10.3908 11.0329 10.2544 10.9784 10.1181C10.7877 9.68171 10.6243 9.24535 10.4336 8.80898C10.3791 8.69989 10.3246 8.61807 10.2157 8.56353C9.88877 8.42716 9.4529 8.50898 9.20773 8.78171C8.93531 9.05444 8.74462 9.38171 8.66289 9.76353C8.55392 10.3363 8.66289 10.8817 8.93531 11.3726C9.69808 12.709 10.6788 13.8544 12.0681 14.5908C12.6947 14.9181 13.3757 15.1908 14.1112 15.2181Z" fill="#121617"/>
</svg>
