<svg width="20" height="20" viewBox="0 0 20 20" fill="none" xmlns="http://www.w3.org/2000/svg">
<path d="M5.05387 1.45567L5.05386 1.45566C3.89082 2.12023 2.87619 3.01612 2.07256 4.0881C1.26906 5.15988 0.693519 6.38496 0.381415 7.68781C0.267708 8.18705 0.182102 8.69227 0.125 9.20111V10.8228C0.192727 11.4144 0.299025 12.001 0.443214 12.5787C0.676765 13.4476 1.02969 14.2799 1.49189 15.0518C1.53583 15.1234 1.56443 15.2033 1.57587 15.2865C1.58734 15.37 1.58129 15.4549 1.55811 15.5359M5.05387 1.45567L0.947392 19.7883M5.05387 1.45567L5.05589 1.45447C6.22818 0.754963 7.54072 0.323749 8.89929 0.191769L8.8993 0.191795L8.90184 0.191496C10.2579 0.0317004 11.6323 0.160691 12.935 0.569996C14.2377 0.979302 15.4391 1.65966 16.4603 2.56641L16.4603 2.56644L16.4628 2.56853C18.1447 3.98544 19.2794 5.94527 19.6712 8.10983L19.6712 8.10984L19.6719 8.11311C19.9816 9.59634 19.9366 11.1318 19.5406 12.5943C19.1446 14.0569 18.4088 15.4051 17.3931 16.5291L17.3912 16.5314C15.8529 18.317 13.7157 19.4791 11.3812 19.7991L11.3816 19.799L11.3976 19.923L11.3806 19.7992M5.05387 1.45567L11.3806 19.7992M1.55811 15.5359C1.5581 15.5359 1.5581 15.5359 1.55809 15.536L1.43792 15.5016L1.55813 15.5358C1.55813 15.5359 1.55812 15.5359 1.55811 15.5359ZM1.55811 15.5359C1.21684 16.7333 0.885162 17.9355 0.553317 19.1384L0.55258 19.141L0.552551 19.141C0.548135 19.1558 0.543146 19.1703 0.538951 19.1825L0.538556 19.1837C0.534274 19.1962 0.53072 19.2065 0.527587 19.2166C0.520827 19.2385 0.519346 19.2493 0.519346 19.2543V19.2684L0.516197 19.2822C0.476862 19.4541 0.516267 19.5665 0.576054 19.6249C0.634716 19.6822 0.744009 19.7175 0.91181 19.6685M0.91181 19.6685C0.911693 19.6685 0.911576 19.6686 0.911459 19.6686L0.947392 19.7883M0.91181 19.6685C0.911962 19.6684 0.912114 19.6684 0.912265 19.6683L0.947392 19.7883M0.91181 19.6685C1.55259 19.4762 2.19307 19.2797 2.83398 19.083C3.15442 18.9847 3.47497 18.8864 3.79572 18.7885M0.947392 19.7883C1.58865 19.5958 2.2299 19.3991 2.87115 19.2024C3.19172 19.104 3.51228 19.0057 3.83285 18.9079M3.79572 18.7885C3.79554 18.7886 3.79537 18.7886 3.79519 18.7887L3.83285 18.9079M3.79572 18.7885C3.90216 18.7549 4.00662 18.7233 4.10997 18.692C4.27765 18.6413 4.44242 18.5914 4.60796 18.5353M3.79572 18.7885C3.79593 18.7884 3.79615 18.7884 3.79637 18.7883L3.83285 18.9079M3.83285 18.9079L4.60796 18.5353M4.60796 18.5353C4.60712 18.5356 4.60629 18.5359 4.60545 18.5362L4.6504 18.6529L4.61022 18.5345C4.60946 18.5348 4.60871 18.535 4.60796 18.5353ZM4.60796 18.5353C4.68608 18.5056 4.77021 18.4953 4.85321 18.5051C4.9353 18.5148 5.01386 18.544 5.08237 18.5902M4.60796 18.5353L5.01589 18.6962M5.08237 18.5902C5.08102 18.5894 5.07967 18.5887 5.07832 18.5879L5.01589 18.6962M5.08237 18.5902C5.08386 18.5912 5.08535 18.5922 5.08683 18.5933L5.01589 18.6962M5.08237 18.5902C6.16281 19.2124 7.35201 19.6227 8.58618 19.7991L8.58486 19.7989L8.56981 19.923C7.31786 19.7443 6.11159 19.3279 5.01589 18.6962M9.21215 19.875L8.58747 19.7993L10.8012 20M9.21215 19.875H9.20461V20L9.21966 19.8759L9.21215 19.875ZM9.21215 19.875H10.7932M10.7932 19.875L10.7852 19.876L10.8012 20M10.7932 19.875L11.3806 19.7992M10.7932 19.875H10.8012V20M10.8012 20L11.3806 19.7992M2.08262 14.9432L2.08264 14.9432C1.38751 13.8492 0.936743 12.618 0.761159 11.3338C0.481484 9.50248 0.772467 7.62946 1.59452 5.96949C2.16677 4.73785 3.00992 3.65154 4.06094 2.79178C5.11177 1.93218 6.34321 1.32129 7.66322 1.00478C9.12187 0.599037 10.6594 0.56868 12.1329 0.916546C13.6065 1.26444 14.9684 1.9793 16.0918 2.99472C17.7993 4.44368 18.909 6.47466 19.2062 8.69479C19.2761 9.13066 19.3071 9.5719 19.2989 10.0133C19.2945 12.0776 18.6062 14.0823 17.3416 15.7136C16.0768 17.3451 14.3069 18.5111 12.309 19.0289C11.2102 19.3146 10.0677 19.3923 8.94037 19.2582C8.94017 19.2582 8.93996 19.2581 8.93976 19.2581L8.95454 19.134C7.64041 18.9906 6.37339 18.5621 5.24191 17.8783L2.08262 14.9432ZM2.08262 14.9432L2.0839 14.9451C2.13565 15.0233 2.16902 15.1122 2.1815 15.2052C2.19398 15.2981 2.18525 15.3927 2.15596 15.4818L2.15587 15.4817L2.15453 15.4864C1.98139 16.0912 1.81298 16.6988 1.64482 17.3054C1.52811 17.7265 1.41152 18.1471 1.29355 18.5661L1.28887 18.5827V18.5964L2.08262 14.9432Z" fill="#121617" stroke="#121617" stroke-width="0.25"/>
<path d="M8.36901 14.2696L8.36765 14.2686C6.65919 12.9933 5.34508 11.2019 4.59476 9.12302L4.59476 9.12302L4.59437 9.12196C4.0935 7.77248 4.357 6.49096 5.06371 5.29745C5.21438 5.04515 5.38234 4.80518 5.56618 4.57953L5.56621 4.57955L5.56823 4.57694C5.64426 4.4784 5.75145 4.4171 5.86616 4.40293L5.8662 4.40328L5.87547 4.40142C6.10587 4.3551 6.33995 4.33319 6.57432 4.33599L6.57432 4.33613L6.58028 4.33592C6.68342 4.33223 6.78607 4.35781 6.87785 4.41071C6.96971 4.46364 7.04775 4.54229 7.1032 4.63945L7.10349 4.63995C7.49937 5.32629 7.84823 6.04236 8.1473 6.78257L8.14749 6.78304C8.2227 6.96702 8.25276 7.16884 8.23453 7.3692C8.2163 7.56955 8.15045 7.76106 8.04383 7.92561L8.04369 7.92552L8.04053 7.93099C7.91053 8.1557 7.75528 8.36232 7.57835 8.54627C7.51043 8.60846 7.46561 8.6923 7.44963 8.78325C7.43375 8.87365 7.44697 8.96734 7.4877 9.04939C7.65218 9.46326 7.88615 9.84211 8.17843 10.1672C8.96317 11.0529 9.87271 11.803 10.8745 12.3903C10.9453 12.4332 11.009 12.4693 11.0674 12.4925C11.1277 12.5165 11.1913 12.5305 11.2596 12.5194C11.327 12.5084 11.3831 12.4754 11.4334 12.4356C11.4827 12.3966 11.5348 12.344 11.5927 12.2833L11.5928 12.2833L11.5954 12.2804C11.9111 11.9284 12.1988 11.5492 12.4556 11.1466L12.4559 11.1468L12.4604 11.1385C12.533 11.0031 12.6491 10.9039 12.7842 10.8576C12.9189 10.8115 13.0649 10.8207 13.1941 10.884L13.1939 10.8843L13.2023 10.8876C13.3588 10.9507 13.5074 11.0349 13.6443 11.1384L13.6442 11.1385L13.6489 11.1417L13.71 11.1836C14.2831 11.5769 14.8637 11.9753 15.4646 12.3442L15.4714 12.3484L15.4788 12.3517C15.5472 12.3824 15.6044 12.4407 15.6368 12.5172C15.6692 12.5938 15.6734 12.6812 15.6482 12.7612L15.6452 12.7706L15.6438 12.7804C15.5491 13.4184 15.3078 14.0208 14.9422 14.5339C14.703 14.8408 14.4099 15.094 14.0799 15.2794C13.7492 15.4651 13.3879 15.5792 13.0165 15.6153L13.0164 15.6151L13.0098 15.6162C12.7944 15.6489 12.577 15.6651 12.3595 15.6645C10.9272 15.6505 9.53324 15.1637 8.36901 14.2696ZM12.4565 15.1589L12.4594 15.1588C12.6044 15.1551 12.7491 15.1429 12.8928 15.1222C13.4448 15.0893 13.9679 14.854 14.3739 14.4579C14.7794 14.0624 15.0432 13.5311 15.1229 12.9542C15.137 12.8963 15.1329 12.8349 15.1108 12.7793L14.9946 12.8256L15.1108 12.7793C15.0882 12.7228 15.0479 12.6743 14.9945 12.643C14.7517 12.4755 14.5095 12.3146 14.2657 12.1526C13.9361 11.9337 13.6035 11.7127 13.262 11.4706L13.262 11.4705L13.2593 11.4687C13.1762 11.413 13.0788 11.37 12.9734 11.3972C12.8731 11.4232 12.8042 11.5038 12.7505 11.585L12.7504 11.585L12.748 11.589C12.47 12.0453 12.1306 12.4551 11.741 12.8053L11.7409 12.8052L11.7373 12.8088C11.6105 12.9324 11.4507 13.0077 11.2824 13.0251C11.1142 13.0425 10.9445 13.0013 10.7988 12.9066L10.799 12.9062L10.7898 12.9012C9.52978 12.2253 8.41659 11.2736 7.52297 10.1075L7.52251 10.1069C7.24464 9.74873 7.05051 9.32431 6.95687 8.86881L6.95691 8.8688L6.95624 8.86592C6.93756 8.78482 6.93905 8.69984 6.96053 8.61962C6.982 8.53941 7.02251 8.46743 7.07722 8.41046L7.07723 8.41048L7.07862 8.40898C7.27205 8.20086 7.44997 7.97709 7.61081 7.73972C7.69577 7.6229 7.7482 7.48399 7.76305 7.33853C7.77795 7.19265 7.75457 7.04498 7.69513 6.91185C7.44058 6.31743 7.1557 5.7383 6.84178 5.17707L6.84209 5.17689L6.83683 5.16897C6.77973 5.08293 6.70487 5.01088 6.61727 4.95862C6.52963 4.90634 6.43165 4.87532 6.3305 4.8683C6.22934 4.86129 6.12819 4.8785 6.03456 4.9184C5.94098 4.95828 5.85763 5.01965 5.79026 5.09743L5.79007 5.09726L5.78518 5.10371C5.50485 5.47311 5.27545 5.88302 5.10376 6.32102C4.9211 6.73214 4.81993 7.17873 4.80635 7.63295C4.79274 8.0881 4.86736 8.54151 5.0257 8.96483C5.68992 10.754 6.77673 12.3303 8.18138 13.5403C9.38736 14.5897 10.8979 15.1622 12.4565 15.1589Z" fill="#121617" stroke="#121617" stroke-width="0.25"/>
</svg>
