<svg width="25" height="26" viewBox="0 0 25 26" fill="none" xmlns="http://www.w3.org/2000/svg">
<g clip-path="url(#clip0_35_1859)">
<path d="M0 14.0795C0 13.3693 0 12.6591 0 11.9205C0.0567537 11.5227 0.113507 11.125 0.170261 10.7273C0.99319 6.03977 4.59705 2.14773 9.1941 0.897727C9.9319 0.727273 10.6697 0.613636 11.4075 0.5C12.1169 0.5 12.8263 0.5 13.5641 0.5C14.0465 0.585227 14.5573 0.613636 15.0397 0.727273C19.9205 1.89205 23.0988 4.90341 24.5743 9.70455C24.8014 10.4432 24.8865 11.2102 25 11.9773C25 12.6591 25 13.3409 25 14.0227C24.9432 14.4489 24.9149 14.875 24.8014 15.3011C23.6947 20.3011 20.7151 23.5398 15.8343 25.0739C15.0681 25.3011 14.3019 25.4148 13.5074 25.5C12.8263 25.5 12.1453 25.5 11.4642 25.5C11.067 25.4432 10.6413 25.4148 10.244 25.3295C5.22134 24.25 1.958 21.2386 0.425653 16.3523C0.198638 15.6136 0.113507 14.8466 0 14.0795ZM20.1759 12.7443C20.1759 12.4318 20.1759 12.0909 20.1192 11.7216C19.4949 7.60227 15.6924 4.81818 11.6061 5.44318C6.55505 6.23864 3.8025 11.7784 6.18615 16.2955C6.27128 16.4659 6.29966 16.608 6.24291 16.8068C5.93076 17.8864 5.64699 18.9659 5.36322 20.0455C5.27809 20.358 5.30647 20.358 5.59024 20.2727C6.72531 19.9886 7.83201 19.6761 8.96708 19.392C9.13734 19.3352 9.27923 19.3636 9.42111 19.4489C10.8683 20.1591 12.3723 20.4148 13.9614 20.1591C17.7072 19.5341 20.2327 16.267 20.1759 12.7443Z" fill="white"/>
<path d="M12.8264 19.0227C11.6062 19.0227 10.5562 18.7386 9.56302 18.1704C9.39276 18.0568 9.25088 18.0568 9.05224 18.1136C8.45633 18.2841 7.83204 18.4261 7.23612 18.5966C6.98073 18.6534 6.95235 18.6534 7.00911 18.3977C7.17937 17.7727 7.34963 17.1761 7.51989 16.5511C7.54827 16.4091 7.54827 16.2954 7.46314 16.1534C6.72534 14.9886 6.38482 13.7102 6.49832 12.3182C6.72534 9.93181 7.91717 8.17044 10.0738 7.14772C13.8479 5.35794 18.2747 7.74431 18.899 11.892C19.4098 15.3011 16.9978 18.5114 13.5925 18.9943C13.3088 19.0227 13.025 19.0227 12.8264 19.0227ZM14.6992 16.3523C14.7844 16.3523 14.8411 16.3523 14.9262 16.3523C15.7492 16.2954 16.4018 15.7273 16.5154 14.9034C16.5437 14.7329 16.5437 14.5625 16.3451 14.4773C15.8627 14.25 15.3519 13.9943 14.8695 13.767C14.6992 13.6818 14.5573 13.7386 14.4438 13.8807C14.2736 14.1079 14.1033 14.3068 13.9331 14.5341C13.8195 14.6761 13.6777 14.7329 13.5074 14.6477C12.4007 14.2216 11.5494 13.4545 10.9251 12.4318C10.84 12.2898 10.84 12.1477 10.9535 12.0341C11.0954 11.8352 11.2373 11.6648 11.3791 11.4659C11.4643 11.3239 11.4926 11.1818 11.4359 11.0398C11.2373 10.5852 11.067 10.1307 10.8684 9.67613C10.8116 9.56249 10.7549 9.47726 10.6413 9.42044C10.3008 9.2784 9.84679 9.36363 9.5914 9.64772C9.30763 9.93181 9.10899 10.2727 9.02386 10.6704C8.91036 11.267 9.02386 11.8352 9.30763 12.3466C10.1022 13.7386 11.1237 14.9318 12.571 15.6989C13.2236 16.0398 13.9331 16.3239 14.6992 16.3523Z" fill="white"/>
</g>
<defs>
<clipPath id="clip0_35_1859">
<rect width="25" height="25" fill="white" transform="translate(0 0.5)"/>
</clipPath>
</defs>
</svg>
